<?xml version="1.0" encoding="UTF-8" standalone="no"?>
<!-- Created with Inkscape (http://www.inkscape.org/) -->

<svg
   xmlns:dc="http://purl.org/dc/elements/1.1/"
   xmlns:cc="http://creativecommons.org/ns#"
   xmlns:rdf="http://www.w3.org/1999/02/22-rdf-syntax-ns#"
   xmlns:svg="http://www.w3.org/2000/svg"
   xmlns="http://www.w3.org/2000/svg"
   xmlns:sodipodi="http://sodipodi.sourceforge.net/DTD/sodipodi-0.dtd"
   xmlns:inkscape="http://www.inkscape.org/namespaces/inkscape"
   width="129.79604mm"
   height="109.76114mm"
   viewBox="0 0 459.90721 388.91742"
   id="svg2"
   version="1.1"
   inkscape:version="0.91 r13725"
   sodipodi:docname="researchobjectbox-traced.svg">
  <defs
     id="defs4" />
  <sodipodi:namedview
     id="base"
     pagecolor="#ffffff"
     bordercolor="#666666"
     borderopacity="1.0"
     inkscape:pageopacity="0.0"
     inkscape:pageshadow="2"
     inkscape:zoom="1.9281418"
     inkscape:cx="141.78633"
     inkscape:cy="280.53514"
     inkscape:document-units="px"
     inkscape:current-layer="layer1"
     showgrid="false"
     fit-margin-top="0"
     fit-margin-left="0"
     fit-margin-right="0"
     fit-margin-bottom="0"
     inkscape:window-width="2560"
     inkscape:window-height="1403"
     inkscape:window-x="3120"
     inkscape:window-y="160"
     inkscape:window-maximized="1" />
  <metadata
     id="metadata7">
    <rdf:RDF>
      <cc:Work
         rdf:about="">
        <dc:format>image/svg+xml</dc:format>
        <dc:type
           rdf:resource="http://purl.org/dc/dcmitype/StillImage" />
        <dc:title></dc:title>
      </cc:Work>
    </rdf:RDF>
  </metadata>
  <g
     inkscape:label="Layer 1"
     inkscape:groupmode="layer"
     id="layer1"
     transform="translate(-98.183674,-114.09209)">
    <path
       inkscape:connector-curvature="0"
       id="path4186"
       d="m 307.94332,502.10219 c -1.25818,-0.42093 -3.52291,-0.80018 -5.03273,-0.84277 -6.15587,-0.17363 -201.24406,-55.15479 -202.88999,-57.17992 -2.449235,-3.01351 -2.449235,-263.49774 0,-266.49978 1.60104,-1.96239 218.31016,-63.48763 223.62122,-63.48763 5.76674,0 230.79415,61.99365 232.44999,64.03853 2.91462,3.59941 2.52314,266.4351 -0.40115,269.32206 -2.11306,2.08609 -189.67357,52.06916 -202.45281,53.95172 -7.50585,1.10572 -42.46543,1.64429 -45.29453,0.69779 z m 33.85652,-265.44894 c 79.68115,-20.81696 193.17087,-50.27292 193.69458,-50.27292 0.36307,0 0.26894,-0.37794 -0.20917,-0.83986 -1.20879,-1.16787 -95.56092,-26.61137 -98.68296,-26.61137 -7.29851,0 -196.30505,59.00359 -192.24139,60.01343 1.50271,0.37343 19.82058,5.31549 40.70639,10.98235 44.33364,12.02887 38.90719,11.38531 56.73255,6.72837 z M 224.0695,210.64147 c 1.14161,-0.74801 39.9363,-12.9129 86.21042,-27.03308 46.27413,-14.12017 88.22886,-26.93281 93.23275,-28.47252 5.90072,-1.81566 8.63405,-3.04471 7.77785,-3.49731 -0.72608,-0.38382 -20.73732,-5.95013 -44.46945,-12.36959 l -43.14931,-11.67175 -98.68204,27.61401 c -109.61075,30.67217 -104.94537,29.32847 -104.2487,30.02514 0.77397,0.77396 96.78457,26.62508 99.1618,26.69958 1.15007,0.0361 3.02508,-0.54648 4.16668,-1.29448 z"
       style="fill:#e8e8e8" />
    <path
       inkscape:connector-curvature="0"
       id="path4184"
       d="m 307.02828,501.82968 c -7.77456,-1.76545 -204.35609,-56.58996 -205.92767,-57.43104 -2.710076,-1.4504 -2.701674,-1.03457 -2.701674,-133.70773 0,-131.56505 0.02551,-132.56761 3.405984,-133.87465 4.358,-1.68499 220.19519,-61.80913 221.8861,-61.80913 4.21695,0 229.61384,61.75088 231.37048,63.38744 2.79478,2.60374 2.7859,265.92739 -0.009,268.53129 -1.40043,1.3047 -179.59227,48.65607 -207.54672,55.15192 -5.00454,1.16292 -35.07539,0.97861 -40.47743,-0.2481 z m 131.7659,-35.74544 105.68723,-27.72081 0,-125.67071 0,-125.6707 -3.66016,-1.27136 c -9.58835,-3.3305 -102.01776,-27.94383 -105.22971,-28.02196 -2.39652,-0.0583 -36.04105,9.81078 -97.45187,28.58593 -51.58543,15.77123 -95.12995,29.05141 -96.76558,29.51152 -2.33034,0.65553 -4.41657,3.49566 -2.56774,3.49566 0.6274,0 71.53944,19.09345 78.51614,21.1409 l 6.17653,1.81262 0.0347,11.62803 c 0.0304,10.17199 3.44081,239.85635 3.57428,240.71886 0.10431,0.67403 8.2128,-1.39786 111.68616,-28.53798 z M 320.72682,182.23813 c 52.07381,-15.89369 94.8858,-29.10377 95.13776,-29.35572 0.96229,-0.9623 -2.95695,-2.13291 -46.97581,-14.03079 l -45.27211,-12.23663 -102.62121,28.73887 c -103.07579,28.86617 -105.21612,29.49602 -104.08328,30.62886 2.81119,2.81119 104.66691,28.40319 106.81763,26.83872 1.27454,-0.92713 44.9232,-14.68962 96.99702,-30.58331 z"
       style="fill:#b8b7b7" />
    <path
       inkscape:connector-curvature="0"
       id="path4180"
       d="M 308.85836,501.59943 C 307.09691,500.8895 261.80238,488.12218 208.20385,473.22761 90.657547,440.5625 101.43338,443.66545 99.772104,442.00418 c -2.085029,-2.08503 -2.085029,-260.27151 0,-262.35654 0.755246,-0.75524 3.534676,-1.99755 6.176526,-2.76069 2.64185,-0.76313 52.6952,-14.81249 111.22968,-31.22079 l 106.42632,-29.83328 111.81095,30.26243 c 122.91408,33.26756 119.16195,32.17067 119.93725,35.06234 0.70179,2.61749 0.71105,260.34494 0.009,262.96056 -0.76829,2.86426 3.32321,1.69326 -105.11429,30.08395 -54.84803,14.3601 -101.4952,26.71071 -103.66037,27.44581 -5.42272,1.84106 -33.12928,1.80542 -37.72926,-0.0485 z M 436.9602,468.17922 c 59.60347,-15.62001 108.68739,-28.89954 109.07537,-29.51007 1.36558,-2.1489 0.88391,-251.09415 -0.48845,-252.45222 -0.67204,-0.66503 -25.48109,-7.71334 -55.13122,-15.6629 -60.05406,-16.10123 -56.28169,-15.07837 -120.39766,-32.64526 l -46.35742,-12.7013 -105.18205,29.48191 c -57.85013,16.21506 -106.26933,30.19433 -107.59822,31.06505 -2.82319,1.84983 -4.00276,247.06117 -1.19966,249.38753 1.01949,0.84611 215.14208,61.12288 217.96506,61.35846 0.51936,0.0434 49.71077,-12.7012 109.31425,-28.3212 z M 224.28733,409.56721 c -67.80064,-16.65262 -98.05549,-121.73325 -38.33304,-133.13763 1.60274,-0.30605 3.62246,-1.33922 4.48827,-2.29593 3.32335,-3.67225 8.02983,-0.62731 14.43795,9.34086 3.40469,5.29616 -9.97911,8.57791 -14.51996,3.56033 -6.00939,-6.6403 -23.22766,9.44548 -27.4837,25.67603 -13.53323,51.60942 59.01761,112.34894 99.02087,82.90022 27.81009,-20.47263 15.41623,-75.76066 -22.6268,-100.93634 -11.91243,-7.88328 -9.38368,24.68261 3.62786,46.72066 10.48798,17.76378 11.54039,19.72687 13.67655,25.51108 7.23588,19.59312 -7.8223,24.17742 -42.16714,12.83732 -36.84308,-12.16498 -43.55839,-27.03608 -22.78907,-50.46652 10.92824,-12.32846 11.38459,-13.25797 11.97892,-24.39915 0.84117,-15.76849 7.82684,-13.01414 7.7861,3.06995 -0.0288,11.366 -1.35328,14.25999 -12.01867,26.26044 -16.17625,18.20114 -16.25646,22.10717 -0.63447,30.8952 17.94727,10.09609 47.05381,15.93066 51.19814,10.26296 2.28287,-3.122 -0.93735,-10.83913 -12.75062,-30.55644 -12.07915,-20.16107 -11.97965,-19.80213 -11.81098,-42.6043 0.18368,-24.83142 0.1234,-24.75754 13.21676,-16.20268 68.56657,44.79962 57.41518,141.17727 -14.29697,123.56394 z"
       style="fill:#555354" />
    <path
       style="fill:#44a3b0"
       d="m 206,342.83008 c -2.63009,0.0624 -4.8611,0.70315 -6.4043,2.08203 -7.77147,6.94402 2.476,16.86387 22.49805,21.78125 9.03529,2.21907 14.01919,2.23666 16.19922,0.0566 C 246.05903,358.98393 220.2025,342.49293 206,342.83008 Z"
       id="path4182"
       inkscape:connector-curvature="0" />
  </g>
</svg>
